<?xml version="1.0" encoding="UTF-8" standalone="no"?>
<!-- Created with Inkscape (http://www.inkscape.org/) -->
<svg xmlns:dc="http://purl.org/dc/elements/1.1/" xmlns:cc="http://creativecommons.org/ns#" xmlns:rdf="http://www.w3.org/1999/02/22-rdf-syntax-ns#" xmlns:svg="http://www.w3.org/2000/svg" xmlns="http://www.w3.org/2000/svg" xmlns:sodipodi="http://sodipodi.sourceforge.net/DTD/sodipodi-0.dtd" xmlns:inkscape="http://www.inkscape.org/namespaces/inkscape" width="210mm" height="297mm" id="svg4668" version="1.1" inkscape:version="0.48.2 r9819" sodipodi:docname="New document 2">
  <defs id="defs3"/>
  <sodipodi:namedview inkscape:document-units="mm" id="base" pagecolor="#ffffff" bordercolor="#666666" borderopacity="1.0" inkscape:pageopacity="0.0" inkscape:pageshadow="2" inkscape:zoom="0.35" inkscape:cx="350" inkscape:cy="520" inkscape:current-layer="layer1" showgrid="false" inkscape:window-width="1092" inkscape:window-height="931" inkscape:window-x="1100" inkscape:window-y="762" inkscape:window-maximized="0"/>
  <metadata id="metadata4">
    <rdf:RDF>
      <cc:Work rdf:about="">
        <dc:format>image/svg+xml</dc:format>
        <dc:type rdf:resource="http://purl.org/dc/dcmitype/StillImage"/>
        <dc:title/>
      </cc:Work>
    </rdf:RDF>
  </metadata>
  <g inkscape:label="Layer 1" inkscape:groupmode="layer" id="layer1">
    <g id="g8132-8-1-0-2" transform="matrix(-3.5433071,0,0,-3.5433071,477.08369,419.66048)" style="stroke-width:0.1;stroke-miterlimit:4;stroke-dasharray:none">
      <g stroke-miterlimit="4" id="face0-6-8-0-1-3" style="fill:none;stroke:#0000ff;stroke-width:0.1;stroke-linecap:round;stroke-linejoin:round;stroke-miterlimit:4;stroke-dasharray:none">
        <line id="line7976-7-6-2-3" y2="79.540001" x2="11.8" y1="79.540001" x1="10" style="stroke-width:0.1;stroke-miterlimit:4;stroke-dasharray:none"/>
        <line id="line7978-1-0-3-0" y2="106.28" x2="11.8" y1="79.540001" x1="11.8" style="stroke-width:0.1;stroke-miterlimit:4;stroke-dasharray:none"/>
        <line id="line7980-9-3-2-0" y2="106.28" x2="63.400002" y1="106.28" x1="11.8" style="stroke-width:0.1;stroke-miterlimit:4;stroke-dasharray:none"/>
        <line id="line7982-3-3-1-4" y2="79.540001" x2="63.400002" y1="106.28" x1="63.400002" style="stroke-width:0.1;stroke-miterlimit:4;stroke-dasharray:none"/>
        <line id="line7984-1-5-1-5" y2="79.540001" x2="65.199997" y1="79.540001" x1="63.400002" style="stroke-width:0.1;stroke-miterlimit:4;stroke-dasharray:none"/>
        <line id="line7986-1-0-0-7" y2="69.739998" x2="65.199997" y1="79.540001" x1="65.199997" style="stroke-width:0.1;stroke-miterlimit:4;stroke-dasharray:none"/>
        <line id="line7988-4-2-1-0" y2="69.739998" x2="63.400002" y1="69.739998" x1="65.199997" style="stroke-width:0.1;stroke-miterlimit:4;stroke-dasharray:none"/>
        <line id="line7990-9-3-3-1" y2="46.540001" x2="63.400002" y1="69.739998" x1="63.400002" style="stroke-width:0.1;stroke-miterlimit:4;stroke-dasharray:none"/>
        <line id="line7992-5-2-8-8" y2="46.540001" x2="65.199997" y1="46.540001" x1="63.400002" style="stroke-width:0.1;stroke-miterlimit:4;stroke-dasharray:none"/>
        <line id="line7994-9-7-0-6" y2="36.740002" x2="65.199997" y1="46.540001" x1="65.199997" style="stroke-width:0.1;stroke-miterlimit:4;stroke-dasharray:none"/>
        <line id="line7996-0-1-0-3" y2="36.740002" x2="63.400002" y1="36.740002" x1="65.199997" style="stroke-width:0.1;stroke-miterlimit:4;stroke-dasharray:none"/>
        <line id="line7998-9-0-9-0" y2="10" x2="63.400002" y1="36.740002" x1="63.400002" style="stroke-width:0.1;stroke-miterlimit:4;stroke-dasharray:none"/>
        <line id="line8000-3-0-4-9" y2="10" x2="11.8" y1="10" x1="63.400002" style="stroke-width:0.1;stroke-miterlimit:4;stroke-dasharray:none"/>
        <line id="line8002-4-9-2-6" y2="36.740002" x2="11.8" y1="10" x1="11.8" style="stroke-width:0.1;stroke-miterlimit:4;stroke-dasharray:none"/>
        <line id="line8004-0-7-4-2" y2="36.740002" x2="10" y1="36.740002" x1="11.8" style="stroke-width:0.1;stroke-miterlimit:4;stroke-dasharray:none"/>
        <line id="line8006-7-1-0-8" y2="46.540001" x2="10" y1="36.740002" x1="10" style="stroke-width:0.1;stroke-miterlimit:4;stroke-dasharray:none"/>
        <line id="line8008-5-7-29-4" y2="46.540001" x2="11.8" y1="46.540001" x1="10" style="stroke-width:0.1;stroke-miterlimit:4;stroke-dasharray:none"/>
        <line id="line8010-7-4-7-6" y2="69.739998" x2="11.8" y1="46.540001" x1="11.8" style="stroke-width:0.1;stroke-miterlimit:4;stroke-dasharray:none"/>
        <line id="line8012-5-5-9-6" y2="69.739998" x2="10" y1="69.739998" x1="11.8" style="stroke-width:0.1;stroke-miterlimit:4;stroke-dasharray:none"/>
        <line id="line8014-0-1-2-2" y2="79.540001" x2="10" y1="69.739998" x1="10" style="stroke-width:0.1;stroke-miterlimit:4;stroke-dasharray:none"/>
        <line id="line8016-6-7-2-5" y2="61.300621" x2="27.751629" y1="60.968426" x1="28.128428" style="stroke:#ff0000;stroke-width:0.1;stroke-miterlimit:4;stroke-dasharray:none"/>
        <line id="line8018-4-8-3-1" y2="61.58297" x2="27.336166" y1="61.300621" x1="27.751629" style="stroke:#ff0000;stroke-width:0.1;stroke-miterlimit:4;stroke-dasharray:none"/>
        <line id="line8020-7-2-1-7" y2="61.81102" x2="26.888592" y1="61.58297" x1="27.336166" style="stroke:#ff0000;stroke-width:0.1;stroke-miterlimit:4;stroke-dasharray:none"/>
        <line id="line8022-8-5-3-1" y2="61.981174" x2="26.415964" y1="61.81102" x1="26.888592" style="stroke:#ff0000;stroke-width:0.1;stroke-miterlimit:4;stroke-dasharray:none"/>
        <line id="line8024-4-4-2-8" y2="62.090752" x2="25.925737" y1="61.981174" x1="26.415964" style="stroke:#ff0000;stroke-width:0.1;stroke-miterlimit:4;stroke-dasharray:none"/>
        <line id="line8026-0-5-1-4" y2="62.138027" x2="25.425644" y1="62.090752" x1="25.925737" style="stroke:#ff0000;stroke-width:0.1;stroke-miterlimit:4;stroke-dasharray:none"/>
        <line id="line8028-0-3-6-0" y2="62.12225" x2="24.923567" y1="62.138027" x1="25.425644" style="stroke:#ff0000;stroke-width:0.1;stroke-miterlimit:4;stroke-dasharray:none"/>
        <line id="line8030-6-0-8-7" y2="62.043667" x2="24.427427" y1="62.12225" x1="24.923567" style="stroke:#ff0000;stroke-width:0.1;stroke-miterlimit:4;stroke-dasharray:none"/>
        <line id="line8032-2-1-1-7" y2="61.903522" x2="23.945047" y1="62.043667" x1="24.427427" style="stroke:#ff0000;stroke-width:0.1;stroke-miterlimit:4;stroke-dasharray:none"/>
        <line id="line8034-4-9-0-1" y2="61.704025" x2="23.484037" y1="61.903522" x1="23.945047" style="stroke:#ff0000;stroke-width:0.1;stroke-miterlimit:4;stroke-dasharray:none"/>
        <line id="line8036-7-4-6-2" y2="61.448322" x2="23.051666" y1="61.704025" x1="23.484037" style="stroke:#ff0000;stroke-width:0.1;stroke-miterlimit:4;stroke-dasharray:none"/>
        <line id="line8038-4-5-0-2" y2="61.140446" x2="22.654753" y1="61.448322" x1="23.051666" style="stroke:#ff0000;stroke-width:0.1;stroke-miterlimit:4;stroke-dasharray:none"/>
        <line id="line8040-1-9-4-7" y2="60.785248" x2="22.299555" y1="61.140446" x1="22.654753" style="stroke:#ff0000;stroke-width:0.1;stroke-miterlimit:4;stroke-dasharray:none"/>
        <line id="line8042-8-3-9-4" y2="60.388332" x2="21.991678" y1="60.785248" x1="22.299555" style="stroke:#ff0000;stroke-width:0.1;stroke-miterlimit:4;stroke-dasharray:none"/>
        <line id="line8044-5-9-9-7" y2="59.955963" x2="21.735973" y1="60.388332" x1="21.991678" style="stroke:#ff0000;stroke-width:0.1;stroke-miterlimit:4;stroke-dasharray:none"/>
        <line id="line8046-8-6-45-5" y2="59.494953" x2="21.536476" y1="59.955963" x1="21.735973" style="stroke:#ff0000;stroke-width:0.1;stroke-miterlimit:4;stroke-dasharray:none"/>
        <line id="line8048-9-6-0-7" y2="59.012573" x2="21.396334" y1="59.494953" x1="21.536476" style="stroke:#ff0000;stroke-width:0.1;stroke-miterlimit:4;stroke-dasharray:none"/>
        <line id="line8050-9-4-6-3" y2="58.516434" x2="21.317753" y1="59.012573" x1="21.396334" style="stroke:#ff0000;stroke-width:0.1;stroke-miterlimit:4;stroke-dasharray:none"/>
        <line id="line8052-9-0-9-8" y2="58.014359" x2="21.301973" y1="58.516434" x1="21.317753" style="stroke:#ff0000;stroke-width:0.1;stroke-miterlimit:4;stroke-dasharray:none"/>
        <line id="line8054-3-8-0-9" y2="57.514263" x2="21.349247" y1="58.014359" x1="21.301973" style="stroke:#ff0000;stroke-width:0.1;stroke-miterlimit:4;stroke-dasharray:none"/>
        <line id="line8056-3-2-8-3" y2="57.024036" x2="21.458826" y1="57.514263" x1="21.349247" style="stroke:#ff0000;stroke-width:0.1;stroke-miterlimit:4;stroke-dasharray:none"/>
        <line id="line8058-7-0-8-7" y2="56.551407" x2="21.628981" y1="57.024036" x1="21.458826" style="stroke:#ff0000;stroke-width:0.1;stroke-miterlimit:4;stroke-dasharray:none"/>
        <line id="line8060-7-6-2-1" y2="56.103836" x2="21.857033" y1="56.551407" x1="21.628981" style="stroke:#ff0000;stroke-width:0.1;stroke-miterlimit:4;stroke-dasharray:none"/>
        <line id="line8062-3-0-8-5" y2="55.688374" x2="22.13938" y1="56.103836" x1="21.857033" style="stroke:#ff0000;stroke-width:0.1;stroke-miterlimit:4;stroke-dasharray:none"/>
        <line id="line8064-2-7-0-7" y2="55.311573" x2="22.471573" y1="55.688374" x1="22.13938" style="stroke:#ff0000;stroke-width:0.1;stroke-miterlimit:4;stroke-dasharray:none"/>
        <line id="line8066-5-2-20-5" y2="54.979382" x2="22.848372" y1="55.311573" x1="22.471573" style="stroke:#ff0000;stroke-width:0.1;stroke-miterlimit:4;stroke-dasharray:none"/>
        <line id="line8068-6-9-9-7" y2="54.697033" x2="23.263834" y1="54.979382" x1="22.848372" style="stroke:#ff0000;stroke-width:0.1;stroke-miterlimit:4;stroke-dasharray:none"/>
        <line id="line8070-3-8-5-2" y2="54.468983" x2="23.711409" y1="54.697033" x1="23.263834" style="stroke:#ff0000;stroke-width:0.1;stroke-miterlimit:4;stroke-dasharray:none"/>
        <line id="line8072-4-1-35-4" y2="54.298824" x2="24.184036" y1="54.468983" x1="23.711409" style="stroke:#ff0000;stroke-width:0.1;stroke-miterlimit:4;stroke-dasharray:none"/>
        <line id="line8074-0-1-98-4" y2="54.189247" x2="24.674263" y1="54.298824" x1="24.184036" style="stroke:#ff0000;stroke-width:0.1;stroke-miterlimit:4;stroke-dasharray:none"/>
        <line id="line8076-6-6-9-9" y2="54.141975" x2="25.174356" y1="54.189247" x1="24.674263" style="stroke:#ff0000;stroke-width:0.1;stroke-miterlimit:4;stroke-dasharray:none"/>
        <line id="line8078-0-1-1-9" y2="54.157753" x2="25.676434" y1="54.141975" x1="25.174356" style="stroke:#ff0000;stroke-width:0.1;stroke-miterlimit:4;stroke-dasharray:none"/>
        <line id="line8080-4-1-2-6" y2="54.236332" x2="26.172573" y1="54.157753" x1="25.676434" style="stroke:#ff0000;stroke-width:0.1;stroke-miterlimit:4;stroke-dasharray:none"/>
        <line id="line8082-0-8-8-0" y2="54.376476" x2="26.654951" y1="54.236332" x1="26.172573" style="stroke:#ff0000;stroke-width:0.1;stroke-miterlimit:4;stroke-dasharray:none"/>
        <line id="line8084-5-1-4-1" y2="54.575974" x2="27.115961" y1="54.376476" x1="26.654951" style="stroke:#ff0000;stroke-width:0.1;stroke-miterlimit:4;stroke-dasharray:none"/>
        <line id="line8086-6-1-0-6" y2="54.831676" x2="27.548334" y1="54.575974" x1="27.115961" style="stroke:#ff0000;stroke-width:0.1;stroke-miterlimit:4;stroke-dasharray:none"/>
        <line id="line8088-8-5-1-2" y2="55.139557" x2="27.945248" y1="54.831676" x1="27.548334" style="stroke:#ff0000;stroke-width:0.1;stroke-miterlimit:4;stroke-dasharray:none"/>
        <line id="line8090-5-0-0-3" y2="55.494751" x2="28.300444" y1="55.139557" x1="27.945248" style="stroke:#ff0000;stroke-width:0.1;stroke-miterlimit:4;stroke-dasharray:none"/>
        <line id="line8092-3-0-8-5" y2="55.891666" x2="28.608322" y1="55.494751" x1="28.300444" style="stroke:#ff0000;stroke-width:0.1;stroke-miterlimit:4;stroke-dasharray:none"/>
        <line id="line8094-7-8-1-9" y2="56.324039" x2="28.864027" y1="55.891666" x1="28.608322" style="stroke:#ff0000;stroke-width:0.1;stroke-miterlimit:4;stroke-dasharray:none"/>
        <line id="line8096-6-3-4-1" y2="56.785049" x2="29.063522" y1="56.324039" x1="28.864027" style="stroke:#ff0000;stroke-width:0.1;stroke-miterlimit:4;stroke-dasharray:none"/>
        <line id="line8098-8-7-9-9" y2="57.267426" x2="29.203667" y1="56.785049" x1="29.063522" style="stroke:#ff0000;stroke-width:0.1;stroke-miterlimit:4;stroke-dasharray:none"/>
        <line id="line8100-6-0-5-1" y2="57.763565" x2="29.282248" y1="57.267426" x1="29.203667" style="stroke:#ff0000;stroke-width:0.1;stroke-miterlimit:4;stroke-dasharray:none"/>
        <line id="line8102-7-1-9-6" y2="58.265644" x2="29.298027" y1="57.763565" x1="29.282248" style="stroke:#ff0000;stroke-width:0.1;stroke-miterlimit:4;stroke-dasharray:none"/>
        <line id="line8104-1-3-0-3" y2="58.765739" x2="29.250753" y1="58.265644" x1="29.298027" style="stroke:#ff0000;stroke-width:0.1;stroke-miterlimit:4;stroke-dasharray:none"/>
        <line id="line8106-8-4-2-6" y2="59.255966" x2="29.141174" y1="58.765739" x1="29.250753" style="stroke:#ff0000;stroke-width:0.1;stroke-miterlimit:4;stroke-dasharray:none"/>
        <line id="line8108-4-3-3-4" y2="59.728592" x2="28.971018" y1="59.255966" x1="29.141174" style="stroke:#ff0000;stroke-width:0.1;stroke-miterlimit:4;stroke-dasharray:none"/>
        <line id="line8110-9-7-5-0" y2="60.176167" x2="28.742968" y1="59.728592" x1="28.971018" style="stroke:#ff0000;stroke-width:0.1;stroke-miterlimit:4;stroke-dasharray:none"/>
        <line id="line8112-7-7-9-8" y2="60.591629" x2="28.460621" y1="60.176167" x1="28.742968" style="stroke:#ff0000;stroke-width:0.1;stroke-miterlimit:4;stroke-dasharray:none"/>
        <line id="line8114-3-5-0-1" y2="60.968426" x2="28.128428" y1="60.591629" x1="28.460621" style="stroke:#ff0000;stroke-width:0.1;stroke-miterlimit:4;stroke-dasharray:none"/>
        <line id="line8116-1-1-13-9" y2="59.139999" x2="30.9" y1="59.139999" x1="31.700001" style="stroke:#ff0000;stroke-width:0.1;stroke-miterlimit:4;stroke-dasharray:none"/>
        <line id="line8118-0-2-6-5" y2="57.139999" x2="30.9" y1="59.139999" x1="30.9" style="stroke:#ff0000;stroke-width:0.1;stroke-miterlimit:4;stroke-dasharray:none"/>
        <line id="line8120-2-6-9-5" y2="57.139999" x2="31.700001" y1="57.139999" x1="30.9" style="stroke:#ff0000;stroke-width:0.1;stroke-miterlimit:4;stroke-dasharray:none"/>
        <line id="line8122-3-6-0-1" y2="59.139999" x2="31.700001" y1="57.139999" x1="31.700001" style="stroke:#ff0000;stroke-width:0.1;stroke-miterlimit:4;stroke-dasharray:none"/>
      </g>
      <g stroke-miterlimit="4" id="face1-2-7-5-4-7" style="fill:none;stroke:#0000ff;stroke-width:0.1;stroke-linecap:round;stroke-linejoin:round;stroke-miterlimit:4;stroke-dasharray:none"/>
      <g stroke-miterlimit="4" id="face2-1-4-0-7" style="fill:none;stroke:#0000ff;stroke-width:0.1;stroke-linecap:round;stroke-linejoin:round;stroke-miterlimit:4;stroke-dasharray:none"/>
    </g>
    <g stroke-miterlimit="4" id="face0-9-3-0-2-8" transform="matrix(0,-3.543307,3.543307,0,208.28153,908.44688)" style="fill:none;stroke:#0000ff;stroke-width:0.1;stroke-linecap:round;stroke-linejoin:round;stroke-miterlimit:4;stroke-dasharray:none">
      <line id="line7215-9-4-44-0" y2="10" x2="36.139999" y1="10" x1="41.939999" style="stroke-width:0.1;stroke-miterlimit:4;stroke-dasharray:none"/>
      <line id="line7217-0-8-19-4" y2="12" x2="36.139999" y1="10" x1="36.139999" style="stroke-width:0.1;stroke-miterlimit:4;stroke-dasharray:none"/>
      <line id="line7219-5-7-02-4" y2="12" x2="23.469999" y1="12" x1="36.139999" style="stroke-width:0.1;stroke-miterlimit:4;stroke-dasharray:none"/>
      <line id="line7221-6-5-1-5" y2="10" x2="23.469999" y1="12" x1="23.469999" style="stroke-width:0.1;stroke-miterlimit:4;stroke-dasharray:none"/>
      <line id="line7223-3-9-5-3" y2="10" x2="17.67" y1="10" x1="23.469999" style="stroke-width:0.1;stroke-miterlimit:4;stroke-dasharray:none"/>
      <line id="line7225-6-5-49-9" y2="12" x2="17.67" y1="10" x1="17.67" style="stroke-width:0.1;stroke-miterlimit:4;stroke-dasharray:none"/>
      <line id="line7227-3-3-0-6" y2="12" x2="10" y1="12" x1="17.67" style="stroke-width:0.1;stroke-miterlimit:4;stroke-dasharray:none"/>
      <line id="line7229-0-2-2-5" y2="63.599998" x2="10" y1="12" x1="10" style="stroke-width:0.1;stroke-miterlimit:4;stroke-dasharray:none"/>
      <line id="line7231-8-7-0-3" y2="63.599998" x2="17.67" y1="63.599998" x1="10" style="stroke-width:0.1;stroke-miterlimit:4;stroke-dasharray:none"/>
      <line id="line7233-4-3-3-7" y2="65.599998" x2="17.67" y1="63.599998" x1="17.67" style="stroke-width:0.1;stroke-miterlimit:4;stroke-dasharray:none"/>
      <line id="line7235-0-9-8-2" y2="65.599998" x2="23.469999" y1="65.599998" x1="17.67" style="stroke-width:0.1;stroke-miterlimit:4;stroke-dasharray:none"/>
      <line id="line7237-4-7-2-1" y2="63.599998" x2="23.469999" y1="65.599998" x1="23.469999" style="stroke-width:0.1;stroke-miterlimit:4;stroke-dasharray:none"/>
      <line id="line7239-6-7-1-8" y2="63.599998" x2="36.139999" y1="63.599998" x1="23.469999" style="stroke-width:0.1;stroke-miterlimit:4;stroke-dasharray:none"/>
      <line id="line7241-4-9-6-4" y2="65.599998" x2="36.139999" y1="63.599998" x1="36.139999" style="stroke-width:0.1;stroke-miterlimit:4;stroke-dasharray:none"/>
      <line id="line7243-6-5-8-2" y2="65.599998" x2="41.939999" y1="65.599998" x1="36.139999" style="stroke-width:0.1;stroke-miterlimit:4;stroke-dasharray:none"/>
      <line id="line7245-4-3-3-1" y2="63.599998" x2="41.939999" y1="65.599998" x1="41.939999" style="stroke-width:0.1;stroke-miterlimit:4;stroke-dasharray:none"/>
      <line id="line7247-3-3-2-0" y2="63.599998" x2="49.349998" y1="63.599998" x1="41.939999" style="stroke-width:0.1;stroke-miterlimit:4;stroke-dasharray:none"/>
      <line id="line7249-8-3-97-6" y2="12" x2="49.349998" y1="63.599998" x1="49.349998" style="stroke-width:0.1;stroke-miterlimit:4;stroke-dasharray:none"/>
      <line id="line7251-4-8-3-0" y2="12" x2="41.939999" y1="12" x1="49.349998" style="stroke-width:0.1;stroke-miterlimit:4;stroke-dasharray:none"/>
      <line id="line7253-0-5-4-3" y2="10" x2="41.939999" y1="12" x1="41.939999" style="stroke-width:0.1;stroke-miterlimit:4;stroke-dasharray:none"/>
    </g>
    <g stroke-miterlimit="4" id="face0-7-7-0-1-4-3" transform="matrix(-3.5433071,0,0,-3.5433071,477.43275,764.84613)" style="fill:none;stroke:#0000ff;stroke-width:0.1;stroke-linecap:round;stroke-linejoin:round;stroke-miterlimit:4;stroke-dasharray:none">
      <line id="line7022-1-4-6-1-0-8" y2="79.540001" x2="11.8" y1="79.540001" x1="10" style="stroke-width:0.1;stroke-miterlimit:4;stroke-dasharray:none"/>
      <line id="line7024-5-8-5-8-5-4" y2="106.28" x2="11.8" y1="79.540001" x1="11.8" style="stroke-width:0.1;stroke-miterlimit:4;stroke-dasharray:none"/>
      <line id="line7026-2-0-3-7-8-9" y2="106.28" x2="63.400002" y1="106.28" x1="11.8" style="stroke-width:0.1;stroke-miterlimit:4;stroke-dasharray:none"/>
      <line id="line7028-1-4-1-6-9-6" y2="79.540001" x2="63.400002" y1="106.28" x1="63.400002" style="stroke-width:0.1;stroke-miterlimit:4;stroke-dasharray:none"/>
      <line id="line7030-1-0-0-1-2-3" y2="79.540001" x2="65.199997" y1="79.540001" x1="63.400002" style="stroke-width:0.1;stroke-miterlimit:4;stroke-dasharray:none"/>
      <line id="line7032-0-5-1-8-3-2" y2="69.739998" x2="65.199997" y1="79.540001" x1="65.199997" style="stroke-width:0.1;stroke-miterlimit:4;stroke-dasharray:none"/>
      <line id="line7034-1-7-9-8-2-3" y2="69.739998" x2="63.400002" y1="69.739998" x1="65.199997" style="stroke-width:0.1;stroke-miterlimit:4;stroke-dasharray:none"/>
      <line id="line7036-8-0-5-3-6-6" y2="46.540001" x2="63.400002" y1="69.739998" x1="63.400002" style="stroke-width:0.1;stroke-miterlimit:4;stroke-dasharray:none"/>
      <line id="line7038-7-0-7-5-8-9" y2="46.540001" x2="65.199997" y1="46.540001" x1="63.400002" style="stroke-width:0.1;stroke-miterlimit:4;stroke-dasharray:none"/>
      <line id="line7040-6-5-6-6-3-5" y2="36.740002" x2="65.199997" y1="46.540001" x1="65.199997" style="stroke-width:0.1;stroke-miterlimit:4;stroke-dasharray:none"/>
      <line id="line7042-0-6-8-8-6-4" y2="36.740002" x2="63.400002" y1="36.740002" x1="65.199997" style="stroke-width:0.1;stroke-miterlimit:4;stroke-dasharray:none"/>
      <line id="line7044-0-7-5-8-6-2" y2="10" x2="63.400002" y1="36.740002" x1="63.400002" style="stroke-width:0.1;stroke-miterlimit:4;stroke-dasharray:none"/>
      <line id="line7046-9-8-4-9-6-1" y2="10" x2="11.8" y1="10" x1="63.400002" style="stroke-width:0.1;stroke-miterlimit:4;stroke-dasharray:none"/>
      <line id="line7048-5-0-7-9-3-7" y2="36.740002" x2="11.8" y1="10" x1="11.8" style="stroke-width:0.1;stroke-miterlimit:4;stroke-dasharray:none"/>
      <line id="line7050-6-6-9-3-1-1" y2="36.740002" x2="10" y1="36.740002" x1="11.8" style="stroke-width:0.1;stroke-miterlimit:4;stroke-dasharray:none"/>
      <line id="line7052-2-5-6-7-6-9" y2="46.540001" x2="10" y1="36.740002" x1="10" style="stroke-width:0.1;stroke-miterlimit:4;stroke-dasharray:none"/>
      <line id="line7054-8-7-6-2-2-4" y2="46.540001" x2="11.8" y1="46.540001" x1="10" style="stroke-width:0.1;stroke-miterlimit:4;stroke-dasharray:none"/>
      <line id="line7056-5-3-6-3-1-7" y2="69.739998" x2="11.8" y1="46.540001" x1="11.8" style="stroke-width:0.1;stroke-miterlimit:4;stroke-dasharray:none"/>
      <line id="line7058-9-4-6-8-9-6" y2="69.739998" x2="10" y1="69.739998" x1="11.8" style="stroke-width:0.1;stroke-miterlimit:4;stroke-dasharray:none"/>
      <line id="line7060-4-3-7-3-7-6" y2="79.540001" x2="10" y1="69.739998" x1="10" style="stroke-width:0.1;stroke-miterlimit:4;stroke-dasharray:none"/>
    </g>
    <g id="g8330" transform="matrix(0,-3.543307,3.543307,0,209.44264,1051.3653)">
      <g stroke-miterlimit="4" id="face0-6" style="fill:none;stroke:#0000ff;stroke-width:0.1;stroke-linecap:round;stroke-linejoin:round;stroke-miterlimit:4;stroke-dasharray:none">
        <line id="line8179" y2="10" x2="36.139999" y1="10" x1="41.939999"/>
        <line id="line8181" y2="12" x2="36.139999" y1="10" x1="36.139999"/>
        <line id="line8183" y2="12" x2="23.469999" y1="12" x1="36.139999"/>
        <line id="line8185" y2="10" x2="23.469999" y1="12" x1="23.469999"/>
        <line id="line8187" y2="10" x2="17.67" y1="10" x1="23.469999"/>
        <line id="line8189" y2="12" x2="17.67" y1="10" x1="17.67"/>
        <line id="line8191" y2="12" x2="10" y1="12" x1="17.67"/>
        <line id="line8193" y2="63.599998" x2="10" y1="12" x1="10"/>
        <line id="line8195" y2="63.599998" x2="17.67" y1="63.599998" x1="10"/>
        <line id="line8197" y2="65.599998" x2="17.67" y1="63.599998" x1="17.67"/>
        <line id="line8199" y2="65.599998" x2="23.469999" y1="65.599998" x1="17.67"/>
        <line id="line8201" y2="63.599998" x2="23.469999" y1="65.599998" x1="23.469999"/>
        <line id="line8203" y2="63.599998" x2="36.139999" y1="63.599998" x1="23.469999"/>
        <line id="line8205" y2="65.599998" x2="36.139999" y1="63.599998" x1="36.139999"/>
        <line id="line8207" y2="65.599998" x2="41.939999" y1="65.599998" x1="36.139999"/>
        <line id="line8209" y2="63.599998" x2="41.939999" y1="65.599998" x1="41.939999"/>
        <line id="line8211" y2="63.599998" x2="49.349998" y1="63.599998" x1="41.939999"/>
        <line id="line8213" y2="12" x2="49.349998" y1="63.599998" x1="49.349998"/>
        <line id="line8215" y2="12" x2="41.939999" y1="12" x1="49.349998"/>
        <line id="line8217" y2="10" x2="41.939999" y1="12" x1="41.939999"/>
        <line id="line8219" y2="38.799999" x2="42.759998" y1="33.599998" x1="42.759998" style="stroke:#ff0000"/>
        <line id="line8221" y2="38.865265" x2="42.755722" y1="38.799999" x1="42.759998" style="stroke:#ff0000"/>
        <line id="line8223" y2="38.929409" x2="42.742962" y1="38.865265" x1="42.755722" style="stroke:#ff0000"/>
        <line id="line8225" y2="38.991341" x2="42.721939" y1="38.929409" x1="42.742962" style="stroke:#ff0000"/>
        <line id="line8227" y2="39.049999" x2="42.693012" y1="38.991341" x1="42.721939" style="stroke:#ff0000"/>
        <line id="line8229" y2="39.104382" x2="42.656677" y1="39.049999" x1="42.693012" style="stroke:#ff0000"/>
        <line id="line8231" y2="39.153553" x2="42.613552" y1="39.104382" x1="42.656677" style="stroke:#ff0000"/>
        <line id="line8233" y2="39.196678" x2="42.564381" y1="39.153553" x1="42.613552" style="stroke:#ff0000"/>
        <line id="line8235" y2="39.233013" x2="42.509998" y1="39.196678" x1="42.564381" style="stroke:#ff0000"/>
        <line id="line8237" y2="39.26194" x2="42.451344" y1="39.233013" x1="42.509998" style="stroke:#ff0000"/>
        <line id="line8239" y2="39.282963" x2="42.389408" y1="39.26194" x1="42.451344" style="stroke:#ff0000"/>
        <line id="line8241" y2="39.295723" x2="42.325264" y1="39.282963" x1="42.389408" style="stroke:#ff0000"/>
        <line id="line8243" y2="39.299999" x2="42.259998" y1="39.295723" x1="42.325264" style="stroke:#ff0000"/>
        <line id="line8245" y2="39.299999" x2="34.860001" y1="39.299999" x1="42.259998" style="stroke:#ff0000"/>
        <line id="line8247" y2="39.295723" x2="34.794739" y1="39.299999" x1="34.860001" style="stroke:#ff0000"/>
        <line id="line8249" y2="39.282963" x2="34.730591" y1="39.295723" x1="34.794739" style="stroke:#ff0000"/>
        <line id="line8251" y2="39.26194" x2="34.668659" y1="39.282963" x1="34.730591" style="stroke:#ff0000"/>
        <line id="line8253" y2="39.233013" x2="34.610001" y1="39.26194" x1="34.668659" style="stroke:#ff0000"/>
        <line id="line8255" y2="39.196678" x2="34.555618" y1="39.233013" x1="34.610001" style="stroke:#ff0000"/>
        <line id="line8257" y2="39.153553" x2="34.506447" y1="39.196678" x1="34.555618" style="stroke:#ff0000"/>
        <line id="line8259" y2="39.104382" x2="34.463322" y1="39.153553" x1="34.506447" style="stroke:#ff0000"/>
        <line id="line8261" y2="39.049999" x2="34.426987" y1="39.104382" x1="34.463322" style="stroke:#ff0000"/>
        <line id="line8263" y2="38.991341" x2="34.39806" y1="39.049999" x1="34.426987" style="stroke:#ff0000"/>
        <line id="line8265" y2="38.929409" x2="34.377037" y1="38.991341" x1="34.39806" style="stroke:#ff0000"/>
        <line id="line8267" y2="38.865265" x2="34.364277" y1="38.929409" x1="34.377037" style="stroke:#ff0000"/>
        <line id="line8269" y2="38.799999" x2="34.360001" y1="38.865265" x1="34.364277" style="stroke:#ff0000"/>
        <line id="line8271" y2="33.599998" x2="34.360001" y1="38.799999" x1="34.360001" style="stroke:#ff0000"/>
        <line id="line8273" y2="33.534737" x2="34.364277" y1="33.599998" x1="34.360001" style="stroke:#ff0000"/>
        <line id="line8275" y2="33.470589" x2="34.377037" y1="33.534737" x1="34.364277" style="stroke:#ff0000"/>
        <line id="line8277" y2="33.408657" x2="34.39806" y1="33.470589" x1="34.377037" style="stroke:#ff0000"/>
        <line id="line8279" y2="33.349998" x2="34.426987" y1="33.408657" x1="34.39806" style="stroke:#ff0000"/>
        <line id="line8281" y2="33.29562" x2="34.463322" y1="33.349998" x1="34.426987" style="stroke:#ff0000"/>
        <line id="line8283" y2="33.246445" x2="34.506447" y1="33.29562" x1="34.463322" style="stroke:#ff0000"/>
        <line id="line8285" y2="33.203323" x2="34.555618" y1="33.246445" x1="34.506447" style="stroke:#ff0000"/>
        <line id="line8287" y2="33.166988" x2="34.610001" y1="33.203323" x1="34.555618" style="stroke:#ff0000"/>
        <line id="line8289" y2="33.138062" x2="34.668659" y1="33.166988" x1="34.610001" style="stroke:#ff0000"/>
        <line id="line8291" y2="33.117039" x2="34.730591" y1="33.138062" x1="34.668659" style="stroke:#ff0000"/>
        <line id="line8293" y2="33.104279" x2="34.794739" y1="33.117039" x1="34.730591" style="stroke:#ff0000"/>
        <line id="line8295" y2="33.099998" x2="34.860001" y1="33.104279" x1="34.794739" style="stroke:#ff0000"/>
        <line id="line8297" y2="33.099998" x2="42.259998" y1="33.099998" x1="34.860001" style="stroke:#ff0000"/>
        <line id="line8299" y2="33.104279" x2="42.325264" y1="33.099998" x1="42.259998" style="stroke:#ff0000"/>
        <line id="line8301" y2="33.117039" x2="42.389408" y1="33.104279" x1="42.325264" style="stroke:#ff0000"/>
        <line id="line8303" y2="33.138062" x2="42.451344" y1="33.117039" x1="42.389408" style="stroke:#ff0000"/>
        <line id="line8305" y2="33.166988" x2="42.509998" y1="33.138062" x1="42.451344" style="stroke:#ff0000"/>
        <line id="line8307" y2="33.203323" x2="42.564381" y1="33.166988" x1="42.509998" style="stroke:#ff0000"/>
        <line id="line8309" y2="33.246445" x2="42.613552" y1="33.203323" x1="42.564381" style="stroke:#ff0000"/>
        <line id="line8311" y2="33.29562" x2="42.656677" y1="33.246445" x1="42.613552" style="stroke:#ff0000"/>
        <line id="line8313" y2="33.349998" x2="42.693012" y1="33.29562" x1="42.656677" style="stroke:#ff0000"/>
        <line id="line8315" y2="33.408657" x2="42.721939" y1="33.349998" x1="42.693012" style="stroke:#ff0000"/>
        <line id="line8317" y2="33.470589" x2="42.742962" y1="33.408657" x1="42.721939" style="stroke:#ff0000"/>
        <line id="line8319" y2="33.534737" x2="42.755722" y1="33.470589" x1="42.742962" style="stroke:#ff0000"/>
        <line id="line8321" y2="33.599998" x2="42.759998" y1="33.534737" x1="42.755722" style="stroke:#ff0000"/>
      </g>
      <g stroke-miterlimit="4" id="face1-28" style="fill:none;stroke:#0000ff;stroke-width:0.1;stroke-linecap:round;stroke-linejoin:round;stroke-miterlimit:4;stroke-dasharray:none"/>
    </g>
  </g>
<head xmlns=""/></svg>